<svg height="479pt" viewBox="-47 0 479 479.99976" width="479pt" xmlns="http://www.w3.org/2000/svg">
<g fill="#8c6239">
<path d="m208.5 8v24h-32v-24c0-4.417969 3.582031-8 8-8h16c4.417969 0 8 3.582031 8 8zm0 0"/>
<path d="m208.5 328v120c0 4.417969-3.582031 8-8 8h-16c-4.417969 0-8-3.582031-8-8v-120zm0 0"/>
<path d="m369.578125 470.929688-13.832031 8c-3.824219 2.207031-8.71875.894531-10.925782-2.929688l-88.402343-153.070312h36.960937l79.121094 137.070312c2.210938 3.824219.902344 8.714844-2.921875 10.929688zm0 0"/>
<path d="m87.941406 322.929688h36.957032l-88.398438 153.070312c-2.210938 3.824219-7.101562 5.136719-10.929688 2.929688l-13.832031-8c-3.820312-2.214844-5.128906-7.105469-2.917969-10.929688zm0 0"/>
</g>
<path d="m360.5 40v248h-336v-248c0-4.417969 3.582031-8 8-8h320c4.417969 0 8 3.582031 8 8zm0 0" fill="#e6e6e6"/>
<path d="m8.5 288h368c4.417969 0 8 3.582031 8 8v24c0 4.417969-3.582031 8-8 8h-368c-4.417969 0-8-3.582031-8-8v-24c0-4.417969 3.582031-8 8-8zm0 0" fill="#333"/>
</svg>